PathFileType	4	(X/Y/Z)	C:\Users\Basilio\Documents\Thesis Gigler\squatting_fais\c3dfiles\076\SLS_front_pre2\markers_experimental.trc
DataRate	CameraRate	NumFrames	NumMarkers	Units	OrigDataRate	OrigDataStartFrame	OrigNumFrames
200.000000	200.000000	4	61	mm	200.000000	1395	1595
Frame#	Time	FHD			LBHD			RBHD			C7			T10			CLAV			LSHO			LUUPA			LMUPA			LDUPA			LLEP			LMEP			LRAD			LUL			LRFIN			RSHO			RUPA1			RMUPA			RDUPA			RLEP			RMEP			RRAD			RUL			RUFIN			LASI			RASI			USACR			LSACR			RSACR			LTHI1			LTHI2			LTHI3			LTHI4			LLFC			LMFC			LTIB1			LTIB2			LTIB3			LTIB4			LLMAL			LMMAL			LHEE			LMT1			LMT2			LMT5			RTHI			RTHI2			RTHI3			RTHI4			RLFC			RMFC			RTIB1			RTIB2			RTIB3			RTIB4			RLMAL			RMMAL			RHEE			RMT1			RMT2			RMT5			
		X1	Y1	Z1	X2	Y2	Z2	X3	Y3	Z3	X4	Y4	Z4	X5	Y5	Z5	X6	Y6	Z6	X7	Y7	Z7	X8	Y8	Z8	X9	Y9	Z9	X10	Y10	Z10	X11	Y11	Z11	X12	Y12	Z12	X13	Y13	Z13	X14	Y14	Z14	X15	Y15	Z15	X16	Y16	Z16	X17	Y17	Z17	X18	Y18	Z18	X19	Y19	Z19	X20	Y20	Z20	X21	Y21	Z21	X22	Y22	Z22	X23	Y23	Z23	X24	Y24	Z24	X25	Y25	Z25	X26	Y26	Z26	X27	Y27	Z27	X28	Y28	Z28	X29	Y29	Z29	X30	Y30	Z30	X31	Y31	Z31	X32	Y32	Z32	X33	Y33	Z33	X34	Y34	Z34	X35	Y35	Z35	X36	Y36	Z36	X37	Y37	Z37	X38	Y38	Z38	X39	Y39	Z39	X40	Y40	Z40	X41	Y41	Z41	X42	Y42	Z42	X43	Y43	Z43	X44	Y44	Z44	X45	Y45	Z45	X46	Y46	Z46	X47	Y47	Z47	X48	Y48	Z48	X49	Y49	Z49	X50	Y50	Z50	X51	Y51	Z51	X52	Y52	Z52	X53	Y53	Z53	X54	Y54	Z54	X55	Y55	Z55	X56	Y56	Z56	X57	Y57	Z57	X58	Y58	Z58	X59	Y59	Z59	X60	Y60	Z60	X61	Y61	Z61	

1396	6.975000000000001	-264.8532104492188	1644.450805664063	-1019.459167480469	-389.0985412597657	1560.764404296875	-1125.597290039063	-384.6560974121095	1562.724243164063	-973.686462402344	-426.581756591797	1436.59912109375	-1051.237548828125	-445.099090576172	1121.722412109375	-1061.424560546875	-289.6449890136719	1368.940673828125	-1051.363159179688	-349.3466186523438	1381.155517578125	-1233.36572265625	-335.9140625000001	1174.365234375	-1290.498779296875	-304.4572143554688	1150.783325195313	-1260.525634765625	-331.1877136230469	1105.510131835938	-1293.971923828125	-342.9362792968751	1050.050903320313	-1295.044555664063	-383.9375915527344	1038.563110351563	-1225.125366210938	-241.2496337890626	829.340026855469	-1238.17236328125	-270.0046386718751	818.8687133789065	-1296.236450195313	-205.3363647460938	750.5177001953126	-1249.26904296875	-356.6127929687501	1367.88037109375	-879.429382324219	-377.0324096679688	1166.441040039063	-809.0940551757815	-331.3776550292969	1147.901733398438	-807.7344970703127	-365.2437438964844	1097.081176757813	-805.2927856445315	-347.7214355468751	1037.780517578125	-801.9853515625002	-346.1788635253907	1024.140380859375	-882.5841064453127	-237.0805206298829	818.7094726562502	-803.5200195312502	-290.1061706542969	814.9868164062502	-763.4649047851564	-211.8099822998047	753.7064819335939	-766.6201171875001	-275.0823669433594	944.859558105469	-1153.472534179688	-282.6170654296876	970.8391723632815	-940.4681396484377	-449.6589965820314	1010.386962890625	-1051.650756835938	-453.1330871582032	978.380798339844	-1077.033203125	-459.4418334960939	982.6746826171877	-1020.486572265625	-342.7542114257813	776.1463623046877	-1204.29052734375	-307.0162963867188	699.7796630859376	-1197.46044921875	-258.8190612792969	707.9011840820314	-1193.126098632813	-329.1895141601563	647.0732421875001	-1176.977416992188	-308.6265563964844	491.2366027832032	-1141.432983398438	-270.8381042480469	498.3083496093751	-1029.965698242188	-284.2997436523438	351.3006896972657	-1056.910766601563	-314.9678344726563	293.0325317382813	-1116.02392578125	-284.9373779296876	297.2206726074219	-1079.93701171875	-308.3706665039063	227.9151306152344	-1036.802124023438	-381.4364929199219	105.9976425170899	-1073.15625	-353.4341125488282	124.2471923828125	-994.8941650390627	-441.0102539062501	96.82827758789065	-1024.977783203125	-239.6877899169922	52.23664855957033	-1005.53076171875	-234.0126037597657	48.31583404541017	-1044.10986328125	-258.4623718261719	42.31011581420899	-1093.991821289063	-201.8725738525391	777.3663330078127	-863.4314575195315	-135.2417449951172	776.6331176757815	-874.4671630859377	-119.9392166137696	804.2158203125002	-888.9108886718752	-89.22449493408205	707.7424316406251	-886.664978027344	-44.8457145690918	668.5119018554689	-894.1799926757815	-34.83069610595704	674.5390625000001	-1010.538635253906	83.7304153442383	610.9849243164064	-916.169616699219	101.832992553711	508.1040039062501	-884.9981079101565	132.2039489746094	540.1393432617189	-900.072448730469	174.1140441894532	519.3218383789064	-934.3852539062502	247.4848327636719	381.4863586425782	-897.886413574219	242.0679779052735	404.6826171875001	-979.5215454101565	232.0742340087891	318.5970764160157	-936.2135009765627	371.4042358398438	466.7771301269532	-980.5294189453127	369.3939819335938	480.1847534179689	-933.391296386719	370.7560729980469	451.8099975585939	-878.634460449219	
1397	6.98	-264.7174987792969	1644.79296875	-1019.492248535156	-388.9951782226564	1561.096069335938	-1125.699584960938	-384.6338500976564	1563.016967773438	-973.7694091796877	-426.5621032714845	1436.852905273438	-1051.422729492188	-444.985321044922	1122.058349609375	-1061.540771484375	-289.5192565917969	1369.239379882813	-1051.478393554688	-349.2149963378907	1381.574951171875	-1233.412475585938	-336.1114807128907	1174.740356445313	-1290.764770507813	-304.6547241210938	1151.12890625	-1260.758911132813	-331.3564147949219	1105.778686523438	-1294.104736328125	-343.2596740722657	1050.513061523438	-1295.208129882813	-384.1212768554689	1038.946655273438	-1225.231689453125	-242.0432586669922	829.4563598632815	-1238.881713867188	-271.4167785644532	819.211364746094	-1296.9892578125	-206.4430694580079	750.4492187500001	-1250.096557617188	-356.6080322265626	1368.179321289063	-879.505065917969	-377.3158264160157	1166.846923828125	-809.2349243164065	-331.6510009765626	1148.277221679688	-807.719177246094	-365.6376647949219	1097.480590820313	-805.455749511719	-348.0687866210938	1038.164794921875	-802.0539550781252	-346.4489135742188	1024.565551757813	-882.5657958984377	-237.419418334961	819.0979614257815	-803.2244262695315	-290.5571594238282	815.4046020507815	-763.2622070312501	-212.3118896484376	754.0303344726564	-766.1394042968751	-275.1091918945313	945.2070922851565	-1153.509765625	-282.4600830078126	971.1007080078127	-940.5437011718752	-449.6459045410157	1010.717712402344	-1051.635864257813	-453.0021362304689	978.682067871094	-1077.045166015625	-459.3466796875001	983.0368652343752	-1020.409362792969	-343.0242614746094	776.4277954101565	-1204.119750976563	-307.3455505371094	699.9655151367189	-1197.433471679688	-259.2407531738282	708.0263061523439	-1193.169799804688	-329.6551208496094	647.4791259765626	-1176.65234375	-309.6134643554688	491.5192260742189	-1141.324584960938	-271.3355712890626	498.4296875000001	-1029.927612304688	-284.7010498046876	351.5373229980469	-1056.702270507813	-315.4467468261719	293.1951599121094	-1115.968994140625	-285.3999633789063	297.4905395507813	-1079.868286132813	-308.6210327148438	228.1054077148438	-1036.79150390625	-381.4589538574219	106.0312652587891	-1073.14208984375	-353.5116882324219	124.2372817993164	-994.8936767578127	-440.986785888672	96.785270690918	-1024.988891601563	-239.7058258056641	52.23166275024415	-1005.491027832031	-233.9522399902344	48.2800979614258	-1044.124267578125	-258.4467773437501	42.36004638671876	-1094.01025390625	-201.7683868408204	777.7861938476565	-863.4008789062502	-135.1521301269532	776.972595214844	-874.4822387695315	-119.8348999023438	804.561218261719	-888.8406372070315	-89.15982818603517	708.0541381835939	-886.7438964843752	-44.72410202026368	668.9370727539064	-894.2124023437502	-34.65692901611329	674.9122314453126	-1010.563659667969	84.19215393066408	611.5070800781251	-916.5061645507815	101.978759765625	508.5091857910157	-885.0500488281252	132.3595886230469	540.5364379882814	-900.1281738281252	174.2461853027344	519.7094116210939	-934.4168701171877	247.6887207031251	381.7961120605469	-897.861999511719	242.100326538086	405.0991821289064	-979.6484985351565	232.1161804199219	319.0393676757813	-936.024597167969	371.4596252441407	467.1240539550782	-980.732360839844	369.5493774414063	480.5550231933595	-933.4514160156252	370.8337097167969	451.820037841797	-879.0767211914065	
1398	6.985	-264.7861633300782	1645.11572265625	-1019.588989257813	-388.9627685546876	1561.208374023438	-1125.774780273438	-384.5921936035157	1563.212158203125	-973.9083251953127	-426.4646606445314	1437.139282226563	-1051.556396484375	-444.8638610839845	1122.302124023438	-1061.676635742188	-289.3909912109376	1369.48828125	-1051.526733398438	-349.0053100585938	1381.890991210938	-1233.549560546875	-336.3007202148438	1175.046142578125	-1290.943359375	-304.8307189941407	1151.432250976563	-1261.101928710938	-331.7836608886719	1106.196044921875	-1294.332763671875	-343.4785156250001	1050.886474609375	-1295.441284179688	-384.360565185547	1039.333129882813	-1225.358154296875	-243.0448455810547	829.6214599609377	-1239.57568359375	-272.3505859375001	819.4712524414065	-1297.762939453125	-207.864730834961	750.4748535156251	-1251.341674804688	-356.6703491210938	1368.46533203125	-879.6016845703127	-377.6506652832032	1167.148803710938	-809.3375244140627	-332.0267944335938	1148.54541015625	-807.7630004882815	-366.0692443847657	1097.844116210938	-805.5708007812502	-348.4178771972657	1038.481201171875	-802.0814208984377	-346.9414062500001	1024.6259765625	-882.5769653320315	-237.7490997314454	819.451354980469	-802.9680786132815	-291.0067749023438	815.760192871094	-763.1079101562501	-212.7785186767579	754.3954467773439	-765.6647338867189	-275.0879821777344	945.4500122070315	-1153.598266601563	-282.3395385742188	971.5776977539065	-940.5355224609377	-449.5897216796876	1010.981750488281	-1051.590698242188	-452.897186279297	978.9253540039065	-1076.97802734375	-459.3900756835939	983.2677001953127	-1020.36376953125	-343.3477478027344	776.7815551757815	-1204.0146484375	-307.8606872558594	700.3128662109376	-1197.308837890625	-259.7116699218751	708.1567382812501	-1193.138793945313	-330.5085144042969	647.9003906250001	-1176.794311523438	-310.5058898925782	491.7489013671876	-1141.190795898438	-271.8252258300782	498.5452270507814	-1029.805908203125	-285.0760192871094	351.6735534667969	-1056.388916015625	-315.8628540039063	293.3609008789063	-1115.922607421875	-285.9098815917969	297.7115478515626	-1079.756713867188	-308.9113464355469	228.3621063232422	-1036.74365234375	-381.5373840332032	106.0219802856446	-1073.073486328125	-353.5390319824219	124.197135925293	-994.9109497070315	-440.9855041503907	96.78675842285159	-1024.970092773438	-239.7152252197266	52.25033187866212	-1005.526245117188	-234.0306854248047	48.37964248657228	-1044.111572265625	-257.7247924804688	42.01985549926759	-1093.779174804688	-201.5744628906251	778.2004394531252	-863.272399902344	-135.012191772461	777.3383789062502	-874.5020141601565	-119.755615234375	804.9406738281252	-888.8181762695315	-88.95249176025392	708.6831665039064	-886.5637817382815	-44.5505714416504	669.3785400390626	-894.2137451171877	-34.58768463134766	675.2924804687501	-1010.601867675781	83.97285461425783	611.6654663085939	-916.2993774414065	102.1060791015625	508.8936157226564	-885.0728149414065	132.4981842041016	540.8849487304689	-900.0848388671877	174.4303741455078	519.9863281250001	-934.429626464844	247.8281555175782	382.2409667968751	-897.8367309570315	242.3124542236329	405.5300903320314	-979.8069458007815	232.2915039062501	319.3771362304688	-936.0300292968752	371.7232666015626	467.4135742187501	-980.8867797851565	369.8107910156251	481.215545654297	-933.693786621094	371.1613769531251	452.622772216797	-878.8672485351565	
1399	6.99	-264.7286071777344	1645.378051757813	-1019.671142578125	-388.8506774902345	1561.707275390625	-1125.847045898438	-384.567352294922	1563.493896484375	-973.9829101562502	-426.3605041503907	1437.410400390625	-1051.76611328125	-444.8490295410157	1122.57373046875	-1061.71044921875	-289.3148193359376	1369.755249023438	-1051.57373046875	-348.9176940917969	1382.214721679688	-1233.724487304688	-336.4869384765626	1175.232788085938	-1291.110229492188	-305.1188049316407	1151.781494140625	-1261.38916015625	-331.9028320312501	1106.530151367188	-1294.521118164063	-343.7946472167969	1051.243286132813	-1295.68896484375	-384.6092224121095	1039.757568359375	-1225.5751953125	-243.8927459716797	829.7009887695315	-1240.380493164063	-273.2239685058594	819.7155761718752	-1298.405029296875	-208.4049835205079	750.3658447265626	-1251.94921875	-356.7080688476563	1368.753784179688	-879.7236328125002	-377.9226379394532	1167.4404296875	-809.4841918945315	-332.2548828125001	1148.899658203125	-807.7482910156252	-366.5055847167969	1098.209838867188	-805.674011230469	-348.7572021484376	1038.783935546875	-802.0449829101565	-347.2221679687501	1024.958862304688	-882.6133422851565	-238.0744171142579	819.7485351562502	-802.5895996093752	-291.3998107910157	816.049743652344	-762.9407958984376	-213.2101745605469	754.8067016601564	-765.2619628906251	-274.9591979980469	945.725524902344	-1153.594970703125	-282.2191162109376	972.077575683594	-940.5722656250002	-449.4985656738282	1011.236450195313	-1051.605224609375	-452.7254638671876	979.1519165039065	-1076.896118164063	-459.4640502929689	983.5393676757815	-1020.331787109375	-343.4382934570313	776.965759277344	-1203.890014648438	-308.2568054199219	700.5667114257814	-1197.280395507813	-259.1742248535157	708.2217407226564	-1192.718017578125	-331.1684570312501	648.1705322265626	-1176.719360351563	-311.1786804199219	491.9118957519532	-1141.03125	-272.3980407714844	498.7054748535157	-1029.656494140625	-285.7093811035157	351.9067993164063	-1056.0322265625	-316.2504882812501	293.3744812011719	-1115.823974609375	-286.5111999511719	298.1235656738282	-1079.712280273438	-309.1854858398438	228.4163360595704	-1036.705322265625	-381.5925598144532	106.0551223754883	-1073.061279296875	-353.6152954101563	124.2139053344727	-994.838562011719	-441.0406799316407	96.7697448730469	-1024.94384765625	-239.7168426513672	52.22331619262697	-1005.528381347656	-233.9767608642579	48.33504867553712	-1044.097290039063	-257.6883239746094	42.01451110839844	-1093.765869140625	-201.4131774902344	778.631042480469	-863.258483886719	-134.9140014648438	777.777770996094	-874.5603027343752	-119.5723037719727	805.341979980469	-888.746520996094	-88.8154754638672	709.0534667968751	-886.4797363281252	-44.37671661376954	669.7846069335939	-894.2081298828127	-34.49768447875977	675.6164550781251	-1010.614501953125	84.17105102539064	612.0479736328126	-916.3047485351565	102.2825927734375	509.2562561035157	-885.1031494140627	132.7306518554688	541.2752685546876	-900.0968017578127	174.454818725586	520.3701171875001	-934.4458618164065	248.0461120605469	382.7452087402344	-897.7642211914065	242.477523803711	405.8702697753907	-979.7105102539065	232.3302154541016	319.7438659667969	-935.876647949219	371.7709655761719	467.632781982422	-980.8814086914065	369.9739990234376	481.4773864746095	-933.7906494140627	371.3695678710938	452.9820251464845	-878.9627685546877	
